<svg xmlns="http://www.w3.org/2000/svg" width="175.854" height="175.147" viewBox="0 0 175.854 175.147">
  <g id="Layer_2" data-name="Layer 2" transform="translate(0 175.147) rotate(-90)">
    <g id="Layer_1" data-name="Layer 1" transform="translate(0 0)">
      <path id="Path_717" data-name="Path 717" d="M147.467,71.025a18.359,18.359,0,0,1-13.316,6.133,18.924,18.924,0,0,1-13.477-6.093L108.206,58.678l-3.026,1.574a43.813,43.813,0,0,0-4.035,2.1,134.364,134.364,0,0,0-32.28,29.536,80.3,80.3,0,0,0-10.652,16.786c3.228,2.946,6.214,6.012,9.159,8.958,1.089,1.13,2.179,2.26,3.309,3.349a18.077,18.077,0,0,1,0,27.277L59.907,159.028l-3.672,3.712c-2.34,2.461-4.842,4.963-7.384,7.344a18.6,18.6,0,0,1-13.194,5.77,19.207,19.207,0,0,1-13.4-5.77h0l-13.477-13.6A28.891,28.891,0,0,1,.068,138.248a69.442,69.442,0,0,1,5.044-29.213,168.542,168.542,0,0,1,30.3-50.357A185.205,185.205,0,0,1,97.15,10.257,95.145,95.145,0,0,1,131.811.009h2.5A29.657,29.657,0,0,1,157.03,9.773v.2a94.708,94.708,0,0,0,7.061,7.223c1.695,1.614,3.43,3.309,5.125,5.084a19.65,19.65,0,0,1,5.932,13.6,19,19,0,0,1-6.053,13.6Zm14-41.48h0c-1.533-1.654-3.107-3.147-4.8-4.8a100.871,100.871,0,0,1-7.3-7.868,18.924,18.924,0,0,0-14.809-6.254h-1.816a84.736,84.736,0,0,0-30.747,9.2,174.675,174.675,0,0,0-58.346,45.6A159.464,159.464,0,0,0,15.4,112.626,55.966,55.966,0,0,0,11,137.32a18.036,18.036,0,0,0,5.205,11.7l13.517,13.437a9.039,9.039,0,0,0,6.012,2.825,8.272,8.272,0,0,0,5.73-2.825h0c2.421-2.26,4.681-4.6,7.1-7.061l3.753-4.035,10.733-10.773a7.465,7.465,0,0,0,0-12.105c-1.13-1.13-2.219-2.3-3.389-3.389-3.309-3.389-6.456-6.537-9.886-9.6v-.2a8.07,8.07,0,0,1-2.018-8.958v-.363a86.147,86.147,0,0,1,12.831-20.7h0A143.646,143.646,0,0,1,95.536,53.513c1.614-1.009,3.268-1.856,4.842-2.663s2.744-1.372,4.035-2.058l.444-.282a8.554,8.554,0,0,1,4.035-1.009,8.07,8.07,0,0,1,5.972,2.744l13.477,13.477a9.039,9.039,0,0,0,5.972,2.946,8.07,8.07,0,0,0,5.649-2.865h0l21.507-21.91a7.788,7.788,0,0,0,0-12.347Z"/>
    </g>
  </g>
</svg>
